<?xml version="1.0" encoding="iso-8859-1"?>
<!-- Uploaded to: SVG Repo, www.svgrepo.com, Generator: SVG Repo Mixer Tools -->
<svg height="800px" width="800px" version="1.1" id="Layer_1" xmlns="http://www.w3.org/2000/svg" xmlns:xlink="http://www.w3.org/1999/xlink" 
	 viewBox="0 0 512 512" xml:space="preserve">
<path style="fill:#9B9DA1;" d="M426.66,204.802c-1.283,0-2.585-0.29-3.81-0.903L256,120.474L89.15,203.899
	c-4.215,2.108-9.342,0.4-11.449-3.817c-2.109-4.215-0.399-9.341,3.815-11.449L252.183,103.3c2.404-1.201,5.229-1.201,7.633,0
	l170.667,85.333c4.214,2.108,5.924,7.233,3.815,11.449C432.804,203.073,429.791,204.802,426.66,204.802z"/>
<path style="fill:#4C4E55;" d="M256,119.467c-23.526,0-42.667-19.14-42.667-42.667c0-4.713,3.821-8.533,8.533-8.533
	c4.713,0,8.533,3.821,8.533,8.533c0,14.116,11.485,25.6,25.6,25.6c14.115,0,25.6-11.484,25.6-25.6S270.115,51.2,256,51.2
	c-4.713,0-8.533-3.821-8.533-8.533V8.533C247.467,3.821,251.287,0,256,0c4.713,0,8.533,3.821,8.533,8.533v26.458
	c19.451,3.965,34.133,21.205,34.133,41.809C298.667,100.326,279.526,119.467,256,119.467z"/>
<path style="fill:#F07B52;" d="M477.867,187.733H34.133c-14.115,0-25.6,11.485-25.6,25.6V486.4c0,14.115,11.485,25.6,25.6,25.6
	h443.733c14.115,0,25.6-11.485,25.6-25.6V213.333C503.467,199.218,491.982,187.733,477.867,187.733z"/>
<path style="fill:#E5563C;" d="M494.933,494.933h-460.8c-4.713,0-8.533-3.821-8.533-8.533V196.267c0-2.585,0.386-5.077,1.099-7.428
	c-10.5,3.194-18.165,12.964-18.165,24.495V486.4c0,14.115,11.485,25.6,25.6,25.6h443.733c11.531,0,21.301-7.665,24.495-18.165
	C500.011,494.547,497.518,494.933,494.933,494.933z"/>
<g>
	<path style="fill:#CF442B;" d="M256,238.933c-14.115,0-25.6,11.485-25.6,25.6V435.2c0,14.115,11.485,25.6,25.6,25.6
		c14.115,0,25.6-11.485,25.6-25.6V264.533C281.6,250.418,270.115,238.933,256,238.933z"/>
	<path style="fill:#CF442B;" d="M332.8,238.933c-14.115,0-25.6,11.485-25.6,25.6V435.2c0,14.115,11.485,25.6,25.6,25.6
		s25.6-11.485,25.6-25.6V264.533C358.4,250.418,346.915,238.933,332.8,238.933z"/>
	<path style="fill:#CF442B;" d="M409.6,238.933c-14.115,0-25.6,11.485-25.6,25.6V435.2c0,14.115,11.485,25.6,25.6,25.6
		c14.115,0,25.6-11.485,25.6-25.6V264.533C435.2,250.418,423.715,238.933,409.6,238.933z"/>
	<path style="fill:#CF442B;" d="M179.2,238.933c-14.115,0-25.6,11.485-25.6,25.6V435.2c0,14.115,11.485,25.6,25.6,25.6
		s25.6-11.485,25.6-25.6V264.533C204.8,250.418,193.315,238.933,179.2,238.933z"/>
	<path style="fill:#CF442B;" d="M102.4,238.933c-14.115,0-25.6,11.485-25.6,25.6V435.2c0,14.115,11.485,25.6,25.6,25.6
		s25.6-11.485,25.6-25.6V264.533C128,250.418,116.515,238.933,102.4,238.933z"/>
</g>
<g>
	<path style="fill:#B83C26;" d="M93.867,435.2V264.533c0-11.124,7.135-20.609,17.067-24.132c-2.671-0.947-5.542-1.468-8.533-1.468
		c-14.115,0-25.6,11.485-25.6,25.6V435.2c0,14.115,11.485,25.6,25.6,25.6c2.991,0,5.862-0.521,8.533-1.468
		C101.002,455.809,93.867,446.324,93.867,435.2z"/>
	<path style="fill:#B83C26;" d="M170.667,435.2V264.533c0-11.124,7.135-20.609,17.067-24.132c-2.671-0.947-5.542-1.468-8.533-1.468
		c-14.115,0-25.6,11.485-25.6,25.6V435.2c0,14.115,11.485,25.6,25.6,25.6c2.991,0,5.862-0.521,8.533-1.468
		C177.802,455.809,170.667,446.324,170.667,435.2z"/>
	<path style="fill:#B83C26;" d="M247.467,435.2V264.533c0-11.124,7.135-20.609,17.067-24.132c-2.671-0.947-5.542-1.468-8.533-1.468
		c-14.115,0-25.6,11.485-25.6,25.6V435.2c0,14.115,11.485,25.6,25.6,25.6c2.991,0,5.862-0.521,8.533-1.468
		C254.602,455.809,247.467,446.324,247.467,435.2z"/>
	<path style="fill:#B83C26;" d="M324.267,435.2V264.533c0-11.124,7.135-20.609,17.067-24.132c-2.671-0.947-5.542-1.468-8.533-1.468
		c-14.115,0-25.6,11.485-25.6,25.6V435.2c0,14.115,11.485,25.6,25.6,25.6c2.991,0,5.862-0.521,8.533-1.468
		C331.402,455.809,324.267,446.324,324.267,435.2z"/>
	<path style="fill:#B83C26;" d="M401.067,435.2V264.533c0-11.124,7.135-20.609,17.067-24.132c-2.671-0.947-5.542-1.468-8.533-1.468
		c-14.115,0-25.6,11.485-25.6,25.6V435.2c0,14.115,11.485,25.6,25.6,25.6c2.991,0,5.862-0.521,8.533-1.468
		C408.202,455.809,401.067,446.324,401.067,435.2z"/>
</g>
</svg>