<?xml version="1.0" encoding="iso-8859-1"?>
<!-- Uploaded to: SVG Repo, www.svgrepo.com, Generator: SVG Repo Mixer Tools -->
<svg height="800px" width="800px" version="1.1" id="Layer_1" xmlns="http://www.w3.org/2000/svg" xmlns:xlink="http://www.w3.org/1999/xlink" 
	 viewBox="0 0 512 512" xml:space="preserve">
<path style="fill:#EAFFFF;" d="M445.217,489.739H66.783c-24.588,0-44.522-19.934-44.522-44.522V66.783
	c0-24.588,19.933-44.522,44.522-44.522h378.435c24.588,0,44.522,19.933,44.522,44.522v378.435
	C489.739,469.806,469.806,489.739,445.217,489.739z"/>
<path style="fill:#A9D5BB;" d="M512,489.739c0,12.295-9.966,22.261-22.261,22.261H22.261C9.966,512,0,502.034,0,489.739V389.565h512
	V489.739z"/>
<path style="fill:#D8FFFF;" d="M333.913,442.435H111.304c-4.61,0-8.348-3.738-8.348-8.348s3.738-8.348,8.348-8.348h222.609
	c4.611,0,8.348,3.738,8.348,8.348S338.524,442.435,333.913,442.435z M400.696,425.739h-22.261c-4.611,0-8.348,3.738-8.348,8.348
	s3.736,8.348,8.348,8.348h22.261c4.611,0,8.348-3.738,8.348-8.348S405.307,425.739,400.696,425.739z M350.609,464.696H217.043
	c-4.61,0-8.348,3.738-8.348,8.348s3.738,8.348,8.348,8.348h133.565c4.611,0,8.348-3.738,8.348-8.348S355.22,464.696,350.609,464.696
	z M183.652,464.696h-22.261c-4.61,0-8.348,3.738-8.348,8.348s3.738,8.348,8.348,8.348h22.261c4.61,0,8.348-3.738,8.348-8.348
	S188.262,464.696,183.652,464.696z"/>
<path style="fill:#A9D5BB;" d="M100.174,100.174H22.261C9.966,100.174,0,90.208,0,77.913l0,0c0-12.295,9.966-22.261,22.261-22.261
	h77.913c12.295,0,22.261,9.966,22.261,22.261l0,0C122.435,90.208,112.469,100.174,100.174,100.174z"/>
<path style="fill:#FFED8F;" d="M0,239.304C0,131.729,87.207,44.522,194.783,44.522s194.783,87.207,194.783,194.783
	c0,60.496-27.591,114.537-70.863,150.261H70.863C27.591,353.841,0,299.8,0,239.304z"/>
<path style="fill:#FFCD69;" d="M300.522,239.304c0,58.398-47.341,105.739-105.739,105.739S89.043,297.702,89.043,239.304
	s47.341-105.739,105.739-105.739S300.522,180.906,300.522,239.304z"/>
<path style="fill:#727C7C;" d="M431.304,8.348c0,4.61-3.736,8.348-8.348,8.348c-10.74,0-19.478,8.739-19.478,19.478
	c0,4.61-3.736,8.348-8.348,8.348c-4.611,0-8.348-3.738-8.348-8.348c0-10.74-8.739-19.478-19.478-19.478
	c-4.611,0-8.348-3.738-8.348-8.348S362.693,0,367.304,0c11.176,0,21.186,5.096,27.826,13.084C401.771,5.096,411.78,0,422.957,0
	C427.568,0,431.304,3.738,431.304,8.348z"/>
<path style="fill:#A9D5BB;" d="M512,155.826L512,155.826c0,12.295-9.966,22.261-22.261,22.261H367.304
	c-12.295,0-22.261-9.966-22.261-22.261h-44.522c-12.295,0-22.261-9.966-22.261-22.261l0,0c0-12.295,9.966-22.261,22.261-22.261
	h77.913c12.295,0,22.261,9.966,22.261,22.261l0,0h89.043C502.034,133.565,512,143.531,512,155.826z"/>
<path style="fill:#DDB961;" d="M413.633,256h31.585C482.1,256,512,285.9,512,322.783l0,0v66.783H189.217l11.13-33.391
	c6.647-19.941,25.308-33.391,46.328-33.391h74.301c21.02,0,39.681-13.45,46.328-33.391l0,0C373.951,269.45,392.613,256,413.633,256z
	"/>
<path style="fill:#CEA455;" d="M285.432,389.565h-96.215l11.13-33.391c6.647-19.941,25.308-33.391,46.328-33.391h63.17h11.13
	c10.595,0,20.587-3.42,28.747-9.363C335.42,344.184,313.102,370.468,285.432,389.565z"/>
<path style="fill:#C5EAD4;" d="M512,389.565c0,4.61-3.736,8.348-8.348,8.348H8.348c-4.61,0-8.348-3.738-8.348-8.348
	c0-4.61,3.738-8.348,8.348-8.348h495.304C508.263,381.217,512,384.955,512,389.565z"/>
</svg>