<?xml version="1.0" encoding="iso-8859-1"?>
<!-- Uploaded to: SVG Repo, www.svgrepo.com, Generator: SVG Repo Mixer Tools -->
<svg version="1.1" id="Layer_1" xmlns="http://www.w3.org/2000/svg" xmlns:xlink="http://www.w3.org/1999/xlink" 
	 viewBox="0 0 512 512" xml:space="preserve">
<circle style="fill:#4AB8A1;" cx="256" cy="256" r="256"/>
<path style="fill:#B3B3B3;" d="M96,432v-20c0-4.4,3.6-8,8-8h300c4.4,0,8,3.6,8,8v20H96z"/>
<rect x="112" y="164" style="fill:#E6E6E6;" width="288" height="240"/>
<path style="fill:#CCCCCC;" d="M400,164H112v59.684c4.712,2.728,10.164,4.316,16,4.316c17.672,0,32-14.328,32-32
	c0,17.672,14.328,32,32,32s32-14.328,32-32c0,17.672,14.328,32,32,32s32-14.328,32-32c0,17.672,14.328,32,32,32s32-14.328,32-32
	c0,17.672,14.328,32,32,32c5.836,0,11.288-1.588,16-4.316V164z"/>
<g>
	<path style="fill:#CC584C;" d="M224,88v100c0,17.672,14.328,32,32,32s32-14.328,32-32V88H224z"/>
	<path style="fill:#CC584C;" d="M352,88v100c0,17.672,14.328,32,32,32s32-14.328,32-32L400,88H352z"/>
	<path style="fill:#CC584C;" d="M112,88L96,188c0,17.672,14.328,32,32,32s32-14.328,32-32V88H112z"/>
</g>
<path style="fill:#BF5347;" d="M96,188c0,17.672,14.328,32,32,32s32-14.328,32-32H96z"/>
<path style="fill:#F5F5F5;" d="M160,88v100c0,17.672,14.328,32,32,32s32-14.328,32-32V88H160z"/>
<path style="fill:#E6E6E6;" d="M160,188c0,17.672,14.328,32,32,32s32-14.328,32-32H160z"/>
<g>
	<path style="fill:#BF5347;" d="M224,188c0,17.672,14.328,32,32,32s32-14.328,32-32H224z"/>
	<path style="fill:#BF5347;" d="M352,188c0,17.672,14.328,32,32,32s32-14.328,32-32H352z"/>
</g>
<path style="fill:#F5F5F5;" d="M288,88v100c0,17.672,14.328,32,32,32s32-14.328,32-32V88H288z"/>
<path style="fill:#E6E6E6;" d="M288,188c0,17.672,14.328,32,32,32s32-14.328,32-32H288z"/>
<rect x="96" y="184" style="opacity:0.4;fill:#F5F5F5;enable-background:new    ;" width="320" height="4"/>
<rect x="128" y="244" style="fill:#999999;" width="256" height="136"/>
<rect x="136" y="252" style="fill:#C2E2F2;" width="240" height="120"/>
<path style="opacity:0.3;fill:#F5F5F5;enable-background:new    ;" d="M149.172,294.828c-1.564-1.564-1.564-4.092,0-5.656l24-24
	c1.564-1.564,4.092-1.564,5.656,0s1.564,4.092,0,5.656l-24,24c-0.78,0.78-1.804,1.172-2.828,1.172S149.952,295.608,149.172,294.828z
	 M202.828,265.172c-1.564-1.564-4.092-1.564-5.656,0l-48,48c-1.564,1.564-1.564,4.092,0,5.656c0.78,0.78,1.804,1.172,2.828,1.172
	s2.048-0.392,2.828-1.172l48-48C204.392,269.264,204.392,266.736,202.828,265.172z"/>
<g>
	<rect x="112" y="400" style="fill:#CCCCCC;" width="288" height="4"/>
	<rect x="132" y="404" style="fill:#CCCCCC;" width="4" height="28"/>
	<rect x="180" y="404" style="fill:#CCCCCC;" width="4" height="28"/>
	<rect x="228" y="404" style="fill:#CCCCCC;" width="4" height="28"/>
	<rect x="276" y="404" style="fill:#CCCCCC;" width="4" height="28"/>
	<rect x="324" y="404" style="fill:#CCCCCC;" width="4" height="28"/>
	<rect x="372" y="404" style="fill:#CCCCCC;" width="4" height="28"/>
</g>
</svg>